<svg width="17" height="18" viewBox="0 0 17 18" fill="none" xmlns="http://www.w3.org/2000/svg">
<path d="M5.05762 6.5V5.5C5.05762 4.70435 5.37369 3.94129 5.9363 3.37868C6.49891 2.81607 7.26197 2.5 8.05762 2.5C8.85327 2.5 9.61633 2.81607 10.1789 3.37868C10.7415 3.94129 11.0576 4.70435 11.0576 5.5V6.5" stroke="black"/>
<path fill-rule="evenodd" clip-rule="evenodd" d="M2.55762 6.5C2.42501 6.5 2.29783 6.55268 2.20406 6.64645C2.1103 6.74022 2.05762 6.86739 2.05762 7V13.75C2.05762 14.6953 2.86228 15.5 3.80762 15.5H12.3076C13.253 15.5 14.0576 14.734 14.0576 13.7893V7C14.0576 6.86739 14.0049 6.74022 13.9112 6.64645C13.8174 6.55268 13.6902 6.5 13.5576 6.5H2.55762Z" stroke="black"/>
</svg>
