<svg width="17" height="17" viewBox="0 0 17 17" fill="none" xmlns="http://www.w3.org/2000/svg">
<g clip-path="url(#clip0_7724_6962)">
<path d="M13.9507 3.57333C13.6102 3.23267 13.2059 2.96243 12.7609 2.77806C12.316 2.59368 11.839 2.49878 11.3574 2.49878C10.8757 2.49878 10.3988 2.59368 9.9538 2.77806C9.50883 2.96243 9.10454 3.23267 8.76404 3.57333L8.05737 4.28L7.3507 3.57333C6.66291 2.88554 5.73006 2.49914 4.75737 2.49914C3.78468 2.49914 2.85183 2.88554 2.16404 3.57333C1.47624 4.26113 1.08984 5.19398 1.08984 6.16667C1.08984 7.13936 1.47624 8.07221 2.16404 8.76L2.8707 9.46667L8.05737 14.6533L13.244 9.46667L13.9507 8.76C14.2914 8.4195 14.5616 8.01521 14.746 7.57024C14.9304 7.12526 15.0253 6.64833 15.0253 6.16667C15.0253 5.68501 14.9304 5.20807 14.746 4.7631C14.5616 4.31812 14.2914 3.91384 13.9507 3.57333Z" stroke="black" stroke-linecap="round" stroke-linejoin="round"/>
</g>
<defs>
<clipPath id="clip0_7724_6962">
<rect width="16" height="16" fill="white" transform="translate(0.0576172 0.5)"/>
</clipPath>
</defs>
</svg>
