<svg width="17" height="17" viewBox="0 0 17 17" fill="none" xmlns="http://www.w3.org/2000/svg">
<path d="M10.6285 11.0723L14.0572 14.501M6.96654 2.50033C6.31707 2.49276 5.67255 2.61415 5.07033 2.85745C4.4681 3.10076 3.92014 3.46115 3.4582 3.91774C2.99625 4.37434 2.6295 4.91806 2.37919 5.51741C2.12889 6.11676 2 6.75982 2 7.40933C2 8.05885 2.12889 8.70191 2.37919 9.30126C2.6295 9.90061 2.99625 10.4443 3.4582 10.9009C3.92014 11.3575 4.4681 11.7179 5.07033 11.9612C5.67255 12.2045 6.31707 12.3259 6.96654 12.3183C8.25858 12.3033 9.49259 11.7795 10.4009 10.8605C11.3093 9.94149 11.8187 8.70146 11.8187 7.40933C11.8187 6.11721 11.3093 4.87718 10.4009 3.9582C9.49259 3.03922 8.25858 2.51539 6.96654 2.50033Z" stroke="black"/>
</svg>
